<?xml version="1.0" encoding="utf-8"?>
<!-- Generator: Adobe Illustrator 19.2.0, SVG Export Plug-In . SVG Version: 6.00 Build 0)  -->
<svg version="1.1" id="Layer_1" xmlns="http://www.w3.org/2000/svg" xmlns:xlink="http://www.w3.org/1999/xlink" x="0px" y="0px"
	 viewBox="0 0 338.1 339.9" style="enable-background:new 0 0 338.1 339.9;" xml:space="preserve">
<style type="text/css">
	.st0{fill:#ED1E25;stroke:#F26522;stroke-width:11;stroke-miterlimit:10;}
	.st1{display:none;fill:#ED1E25;stroke:#F26522;stroke-width:11;stroke-miterlimit:10;}
	.st2{display:none;fill:#ED1E25;}
	.st3{fill:#EC2428;}
	.st4{enable-background:new    ;}
	.st5{fill:#FFFFFF;}
</style>
<path class="st0" d="M234.5,169.9"/>
<polyline class="st1" points="225.4,-3 160.8,53 100.1,6.9 92.4,38.1 6.5,11.8 46.4,93.5 -2.3,122.1 37.7,172.5 -2.3,228.1 
	48.4,242.1 3.9,334.1 96.9,281.9 89.6,334.1 174,285.6 222.4,341.6 241.9,245.7 "/>
<polyline class="st2" points="219.4,-3 158.1,65.6 105.8,21.9 98.7,50.7 19.4,26.5 56.3,101.8 11.4,128.2 48.3,174.6 11.4,226 
	58.1,238.9 17.1,323.7 102.9,275.6 96.1,323.7 163.1,255 219.4,347 236.5,242.2 "/>
<path class="st3" d="M22.4,0L7.3,18.2C-3.9,31.7-2,51.7,11.5,62.8l22.4,18.6l-17.5,21.1c-5.1,6.2-4.3,15.4,1.9,20.6l21.1,17.5
	C20.9,198.2,37.9,264,87.3,304.9c64.8,53.6,161.1,44.6,214.7-20.2S346.7,123.6,281.9,70c-49.4-40.9-117.2-45.3-170.4-16.4L90.4,36.1
	C84.2,31,74.9,31.8,69.8,38L55.6,55.1l-20.5-17l15.5-18.7"/>
<g class="st4">
	<path class="st5" d="M125.1,148.5h-24.3v-17.2h69.5v17.2h-24.7v73.2h-20.5V148.5z"/>
</g>
<g class="st4">
	<path class="st5" d="M156.9,221.7v-62.2h16.4l12.9,22.8c3.7,6.5,7.4,14.3,10.1,21.3h0.3c-0.9-8.2-1.2-16.6-1.2-25.9v-18.2h12.9
		v62.2h-14.8l-13.3-24c-3.7-6.6-7.7-14.7-10.8-22l-0.3,0.1c0.4,8.2,0.6,17,0.6,27.1v18.7H156.9z"/>
</g>
<g class="st4">
	<path class="st5" d="M220.5,148.5h-24.3v-17.2h69.5v17.2H241v73.2h-20.5V148.5z"/>
</g>
<g class="st4">
	<path class="st5" d="M146.7,244c0,4.3-1.2,7.7-3.5,10c-2.3,2.3-5.6,3.5-9.9,3.5h-8.2v-25.9h8.8c4.1,0,7.2,1.1,9.5,3.2
		C145.6,237,146.7,240,146.7,244z M139.6,244.3c0-2.4-0.5-4.1-1.4-5.3c-0.9-1.1-2.3-1.7-4.2-1.7h-2v14.5h1.5c2.1,0,3.6-0.6,4.6-1.9
		S139.6,246.8,139.6,244.3z"/>
	<path class="st5" d="M150.7,232.5c0-1,0.3-1.8,0.9-2.3c0.6-0.5,1.5-0.8,2.8-0.8c1.3,0,2.2,0.3,2.8,0.8c0.6,0.5,0.9,1.3,0.9,2.3
		c0,2-1.2,3-3.6,3C151.9,235.5,150.7,234.5,150.7,232.5z M157.7,257.6h-6.8v-20.1h6.8V257.6z"/>
	<path class="st5" d="M181.1,237.5v3.4l-2.7,1c0.4,0.7,0.6,1.5,0.6,2.4c0,2.2-0.7,3.8-2.2,5c-1.5,1.2-3.7,1.8-6.7,1.8
		c-0.7,0-1.3,0-1.7-0.1c-0.2,0.3-0.2,0.6-0.2,0.9c0,0.3,0.3,0.6,0.8,0.8c0.5,0.2,1.3,0.3,2.1,0.3h3.3c4.4,0,6.6,1.9,6.6,5.7
		c0,2.4-1,4.3-3.1,5.7c-2,1.4-4.9,2-8.6,2c-2.8,0-5-0.5-6.5-1.4c-1.5-1-2.3-2.3-2.3-4.1c0-2.4,1.5-3.9,4.4-4.6
		c-0.6-0.3-1.1-0.7-1.6-1.3s-0.7-1.2-0.7-1.7c0-0.6,0.2-1.2,0.5-1.7c0.3-0.5,1-1,2.1-1.7c-1-0.5-1.8-1.2-2.4-2.2
		c-0.6-1-0.9-2.2-0.9-3.6c0-2.2,0.7-3.9,2.2-5.1c1.5-1.2,3.6-1.8,6.3-1.8c0.4,0,1,0,1.9,0.1c0.9,0.1,1.5,0.2,2,0.2H181.1z
		 M166.2,260.1c0,0.6,0.3,1,0.9,1.4c0.6,0.3,1.4,0.5,2.4,0.5c1.6,0,3-0.2,4-0.6c1-0.4,1.5-1,1.5-1.6c0-0.5-0.3-0.9-0.9-1.1
		s-1.5-0.3-2.6-0.3h-2.7c-0.7,0-1.3,0.2-1.9,0.5S166.2,259.5,166.2,260.1z M168.4,244c0,2.1,0.7,3.1,2.1,3.1c0.7,0,1.2-0.3,1.5-0.8
		c0.4-0.5,0.5-1.3,0.5-2.3c0-2.1-0.7-3.1-2-3.1C169.1,241,168.4,242,168.4,244z"/>
	<path class="st5" d="M184,232.5c0-1,0.3-1.8,0.9-2.3c0.6-0.5,1.5-0.8,2.8-0.8c1.3,0,2.2,0.3,2.8,0.8c0.6,0.5,0.9,1.3,0.9,2.3
		c0,2-1.2,3-3.6,3C185.2,235.5,184,234.5,184,232.5z M190.9,257.6h-6.8v-20.1h6.8V257.6z"/>
	<path class="st5" d="M205.4,252.4c0.9,0,2-0.2,3.3-0.7v5.1c-0.9,0.4-1.8,0.7-2.6,0.9s-1.8,0.3-2.9,0.3c-2.3,0-3.9-0.6-4.9-1.7
		c-1-1.1-1.5-2.9-1.5-5.3v-8.3h-2.4v-2.8l3-2.2l1.8-4.2h4.5v4h4.8v5.2h-4.8v7.8C203.5,251.8,204.1,252.4,205.4,252.4z"/>
	<path class="st5" d="M225,257.6l-1.3-2.7h-0.1c-0.9,1.2-1.9,2-2.8,2.4c-1,0.4-2.2,0.6-3.7,0.6c-1.9,0-3.3-0.6-4.4-1.7
		c-1.1-1.1-1.6-2.7-1.6-4.8c0-2.1,0.7-3.7,2.2-4.8c1.5-1,3.6-1.6,6.4-1.8l3.3-0.1v-0.3c0-1.7-0.8-2.5-2.4-2.5
		c-1.4,0-3.3,0.5-5.5,1.5l-2-4.6c2.3-1.2,5.2-1.8,8.7-1.8c2.5,0,4.5,0.6,5.9,1.9c1.4,1.3,2.1,3.1,2.1,5.4v13.2H225z M219.9,253
		c0.8,0,1.5-0.3,2.1-0.8c0.6-0.5,0.9-1.2,0.9-2.1v-1.6l-1.6,0.1c-2.2,0.1-3.4,0.9-3.4,2.5C218,252.4,218.6,253,219.9,253z"/>
	<path class="st5" d="M241.1,257.6h-6.8V230h6.8V257.6z"/>
</g>
</svg>
