<?xml version="1.0" encoding="utf-8"?>
<!-- Generator: Adobe Illustrator 19.1.0, SVG Export Plug-In . SVG Version: 6.00 Build 0)  -->
<svg version="1.1" id="Layer_1" xmlns="http://www.w3.org/2000/svg" xmlns:xlink="http://www.w3.org/1999/xlink" x="0px" y="0px"
	 viewBox="0 0 350 350" style="enable-background:new 0 0 350 350;" xml:space="preserve">
<style type="text/css">
	.st0{fill:#EC2428;}
	.st1{fill:#FFFFFF;}
	.st2{font-family:'MyriadPro-Bold';}
	.st3{font-size:147.753px;}
	.st4{letter-spacing:-23;}
	.st5{font-size:101.6366px;}
	.st6{letter-spacing:-22;}
	.st7{letter-spacing:-2;}
	.st8{font-family:'OpenSans-Extrabold';}
	.st9{font-size:39.9706px;}
</style>
<path class="st0" d="M23.4,60.3L4.1,82.8c-5.7,6.6-4.9,16.7,1.7,22.3l22.6,19.3c-21.1,62.1-3.9,133.7,49,178.9
	c69.2,59.2,173.7,51.1,233-18.1s51.1-173.7-18.1-233C239.5,7.1,166.1,1.1,108,31.5L85.4,12.2c-6.6-5.7-16.7-4.9-22.3,1.7L47.4,32.2"
	/>
<text transform="matrix(1 0 0 1 88.9651 210.8906)"><tspan x="0" y="0" class="st1 st2 st3 st4">T</tspan><tspan x="57.3" y="0" class="st1 st2 st5 st6">N</tspan><tspan x="105.1" y="0" class="st1 st2 st3 st7">T</tspan></text>
<text transform="matrix(0.9823 0 0 1 115.0335 244.7725)" class="st1 st8 st9">Digital</text>
</svg>
