<?xml version="1.0" encoding="utf-8"?>
<!-- Generator: Adobe Illustrator 19.1.0, SVG Export Plug-In . SVG Version: 6.00 Build 0)  -->
<svg version="1.1" id="Capa_1" xmlns="http://www.w3.org/2000/svg" xmlns:xlink="http://www.w3.org/1999/xlink" x="0px" y="0px"
	 viewBox="129.2 15.9 336.2 342.2" style="enable-background:new 129.2 15.9 336.2 342.2;" xml:space="preserve">
<style type="text/css">
	.st0{fill:#ED1E25;}
	.st1{fill:#FFFFFF;}
	.st2{font-family:'MyriadPro-Bold';}
	.st3{font-size:206.4309px;}
	.st4{letter-spacing:-33;}
	.st5{font-size:142px;}
	.st6{letter-spacing:-31;}
	.st7{letter-spacing:-4;}
</style>
<path class="st0" d="M151.5,15.9l-15.1,18.2c-11.1,13.5-9.3,33.5,4.2,44.6L163,97.3l-17.5,21.1c-5.1,6.2-4.3,15.4,1.9,20.6
	l21.1,17.5c-18.5,57.7-1.6,123.4,47.9,164.4c64.8,53.6,161.1,44.6,214.7-20.2S475.8,139.5,411,85.9C361.6,45,293.8,40.6,240.6,69.5
	L219.5,52c-6.2-5.1-15.4-4.3-20.6,1.9l-14.1,17.1l-20.5-17l15.5-18.7"/>
<text transform="matrix(1 0 0 1 174.999 273.5491)"><tspan x="0" y="0" class="st1 st2 st3 st4">T</tspan><tspan x="80.1" y="0" class="st1 st2 st5 st6">N</tspan><tspan x="146.8" y="0" class="st1 st2 st3 st7">T</tspan></text>
</svg>
