<?xml version="1.0" encoding="iso-8859-1"?>
<!-- Generator: Adobe Illustrator 17.1.0, SVG Export Plug-In . SVG Version: 6.00 Build 0)  -->
<!DOCTYPE svg PUBLIC "-//W3C//DTD SVG 1.1//EN" "http://www.w3.org/Graphics/SVG/1.1/DTD/svg11.dtd">
<svg version="1.1" id="Capa_1" xmlns="http://www.w3.org/2000/svg" xmlns:xlink="http://www.w3.org/1999/xlink" x="0px" y="0px"
	 viewBox="0 0 444.076 444.076" style="enable-background:new 0 0 444.076 444.076;" xml:space="preserve">
<path d="M279.964,142.195v-28.15c0-8.271-6.729-15-15-15h-22.756V71.674h24.957c8.787,0,16.967-3.466,23.032-9.76
	c6.065-6.293,9.226-14.596,8.901-23.377l-0.802-21.684c-0.358-9.658-8.467-17.212-18.136-16.84
	c-9.658,0.357-17.198,8.477-16.84,18.135l0.686,18.526h-24.297c-17.92,0-32.5,14.58-32.5,32.5v29.871h-28.096
	c-8.271,0-15,6.729-15,15v28.15c-57.701,23.073-98.573,79.542-98.573,145.382c0,86.294,70.206,156.5,156.5,156.5
	s156.5-70.206,156.5-156.5C378.538,221.737,337.666,165.268,279.964,142.195z"/>
<g>
</g>
<g>
</g>
<g>
</g>
<g>
</g>
<g>
</g>
<g>
</g>
<g>
</g>
<g>
</g>
<g>
</g>
<g>
</g>
<g>
</g>
<g>
</g>
<g>
</g>
<g>
</g>
<g>
</g>
</svg>
